<svg width="846" height="108" viewBox="0 0 846 108" fill="none" xmlns="http://www.w3.org/2000/svg">
<path d="M551.952 62.7366H595.425L600.228 43.6688H556.756L562.141 22.1265H612.212L617.016 2.62207H544.189C542.831 2.62207 541.666 3.54392 541.375 4.80541L520.803 87.1414C518.523 96.3114 525.461 105.239 534.922 105.239H591.398L596.832 84.4244H550.448C548.556 84.4244 547.198 82.6777 547.634 80.834L551.952 62.7366Z" fill="#F73905"/>
<path d="M682.326 62.7366L687.129 43.6688H643.656L649.042 22.1265H699.113L703.916 2.62207H631.09C629.731 2.62207 628.567 3.54392 628.276 4.80541L607.704 87.1414C605.424 96.3114 612.362 105.239 621.823 105.239H678.298L683.733 84.4244H633.661L638.853 62.7366H682.326Z" fill="#F73905"/>
<path d="M318.281 23.535C313.817 16.2087 307.607 10.532 299.601 6.505C291.596 2.47796 282.329 0.440186 271.849 0.440186C260.398 0.440186 250.015 3.01167 240.7 8.10612C231.384 13.2006 224.058 20.2358 218.721 29.2117C213.384 38.1876 210.715 48.2795 210.715 59.3902C210.715 68.8999 212.899 77.2936 217.265 84.5228C221.632 91.7521 227.794 97.3802 235.751 101.407C243.708 105.434 252.975 107.424 263.552 107.424C275.002 107.424 285.434 104.901 294.798 99.8062C304.162 94.7117 311.537 87.7251 316.922 78.8462C322.308 69.9673 324.977 59.9724 324.977 48.9102C324.977 39.3035 322.745 30.8613 318.281 23.535ZM293.973 68.2691C291.062 73.8002 287.035 78.1669 281.844 81.3206C276.652 84.4743 270.684 86.0269 263.989 86.0269C258.749 86.0269 254.139 84.9595 250.112 82.7762C246.085 80.5928 242.932 77.3906 240.7 73.218C238.468 69.0939 237.352 64.1936 237.352 58.6624C237.352 52.0639 238.759 45.9506 241.525 40.3224C244.29 34.7428 248.269 30.2306 253.46 26.8828C258.652 23.535 264.571 21.8369 271.266 21.8369C276.506 21.8369 281.213 23.0013 285.337 25.2817C289.461 27.5621 292.663 30.7643 294.944 34.8884C297.224 39.0124 298.34 43.9613 298.34 49.638C298.34 56.5761 296.884 62.738 293.973 68.2691Z" fill="#1E1E1E"/>
<path d="M390.08 43.5247L380.182 41.3413C374.748 40.0313 370.963 38.5272 368.828 36.9747C366.694 35.4706 365.675 33.2387 365.772 30.4246C365.772 28.3869 366.257 26.4946 367.179 24.748C368.101 23.0013 369.702 21.5458 372.031 20.3813C374.36 19.2169 377.513 18.6346 381.492 18.6346C385.47 18.6346 388.721 19.3139 391.487 20.6724C394.252 22.0309 396.338 23.8261 397.745 25.9124C399.153 28.0958 400.026 30.5217 400.414 33.3358H425.304C425.013 27.2224 423.218 21.6913 419.87 16.7424C416.522 11.7935 411.67 7.86352 405.314 4.90389C398.958 1.94426 391.292 0.440186 382.365 0.440186C374.117 0.440186 366.839 1.75019 360.532 4.37019C354.224 6.99019 349.324 10.8232 345.831 15.8206C342.337 20.818 340.591 26.7372 340.591 33.4813C340.591 40.7106 342.774 46.6784 347.141 51.3847C351.507 56.188 358.106 59.6328 366.936 61.7191L377.562 64.048C382.608 65.455 386.198 67.1047 388.284 69.1424C390.371 71.1802 391.39 73.6062 391.39 76.4202C391.39 78.8462 390.71 81.0295 389.352 82.9217C387.993 84.8139 385.907 86.318 383.044 87.4339C380.182 88.5499 376.591 89.0836 372.322 89.0836C368.052 89.0836 364.316 88.3558 361.405 86.9002C358.494 85.4447 356.359 83.5039 355.001 81.0295C353.642 78.5551 353.011 75.7895 353.108 72.6358H328.655C328.461 79.4284 330.062 85.4932 333.41 90.7817C336.758 96.0703 341.707 100.146 348.305 103.057C354.904 105.968 362.764 107.424 371.885 107.424C381.589 107.424 389.982 106.114 397.018 103.494C404.053 100.874 409.487 97.0406 413.368 91.9947C417.25 86.9973 419.191 80.8354 419.191 73.6547C419.191 65.6006 416.522 59.0991 411.185 54.1502C405.848 49.2013 398.813 45.6595 390.08 43.5247Z" fill="#F73905"/>
<path d="M526.036 34.6443C526.521 28.3854 525.453 22.8058 522.785 17.9054C520.116 13.0536 516.138 9.31763 510.898 6.64911C505.658 3.98059 499.593 2.62207 492.703 2.62207H448.988C447.63 2.62207 446.465 3.54392 446.174 4.80541L421.09 105.239H446.708L455.878 68.8499H484.116C491.879 68.8499 498.865 67.4914 505.027 64.7258C511.189 61.9603 516.089 57.9818 519.777 52.8388C523.464 47.6958 525.55 41.631 526.036 34.6443ZM495.129 45.658C492.073 48.2295 488.143 49.491 483.388 49.491H460.536L467.377 22.7088H486.59C490.86 22.7088 494.207 23.7762 496.633 25.8625C499.059 27.9488 500.175 30.8599 499.981 34.6443C499.787 39.3991 498.186 43.0866 495.129 45.658Z" fill="#F73905"/>
<path d="M793.246 24.9891C789.025 17.8569 782.912 12.3258 774.955 8.4443C766.998 4.61133 757.779 2.62207 747.299 2.62207H717.994C716.636 2.62207 715.471 3.54392 715.18 4.80541L690.096 105.239H736.528C748.561 105.239 759.186 103.007 768.405 98.4947C777.623 93.9825 784.853 87.5296 790.093 79.1844C795.333 70.8392 798.244 61.2325 798.826 50.3643C799.311 40.5636 797.468 32.1214 793.246 24.9891ZM772.335 50.2188C771.947 57.3025 770.297 63.4158 767.338 68.5103C764.378 73.6047 760.205 77.5347 754.868 80.3003C749.531 83.0658 743.321 84.4244 736.237 84.4244H720.954L736.383 23.4365H745.116C750.841 23.4365 755.79 24.4554 759.963 26.4447C764.135 28.4339 767.338 31.4421 769.569 35.4691C771.801 39.4962 772.723 44.3966 772.335 50.2188Z" fill="#F73905"/>
<path d="M106.192 52.8388C109.88 47.6958 111.966 41.631 112.451 34.6443C112.936 28.3854 111.869 22.8058 109.2 17.9054C106.532 13.0536 102.553 9.31763 97.3133 6.64911C92.0733 3.98059 86.0084 2.62207 79.1188 2.62207H35.4036C34.0451 2.62207 32.8806 3.54392 32.5895 4.85392L28.8051 20.0887C28.4169 21.5928 27.0584 22.6602 25.5058 22.6602H6.6321C5.27358 22.6602 4.10913 23.5821 3.81802 24.8921L0.0820909 39.8358C-0.354576 41.6795 1.00394 43.4262 2.89617 43.4262H20.751C22.1095 43.4262 23.274 42.5043 23.5651 41.1943L27.5436 25.2802C27.9317 23.7762 29.2903 22.7087 30.8429 22.7087H73.0055C77.2751 22.7087 80.6229 23.7762 83.0488 25.8625C85.4747 27.9487 86.5907 30.8599 86.3966 34.6443C86.2025 39.3991 84.6014 43.0865 81.5447 45.658C78.4881 48.2295 74.5581 49.491 69.8033 49.491H49.3769C48.0184 49.491 46.854 50.4128 46.5629 51.7228L42.9725 66.1328C42.5843 67.6369 41.2258 68.7528 39.6732 68.7528H18.8103C17.4517 68.7528 16.2873 69.6747 15.9962 70.9362L7.40839 105.19V105.336H33.2203L41.7595 71.4214C42.1477 69.9173 43.5062 68.8499 45.0588 68.8499H70.531C78.294 68.8499 85.2807 67.4914 91.4425 64.7258C97.6044 61.9603 102.505 57.9817 106.192 52.8388Z" fill="#1E1E1E"/>
<path d="M193.098 6.11541C188.246 3.78652 182.569 2.62207 176.068 2.62207H130.606C129.247 2.62207 128.083 3.54392 127.792 4.80541L102.708 105.239H128.18L138.223 64.7743H158.456L173.933 105.239H200.861L183.103 62.8336C185.141 62.2514 187.13 61.6206 189.071 60.7473C195.184 58.0788 199.987 54.1488 203.432 48.9573C206.877 43.7658 208.575 37.6525 208.575 30.5688C208.575 25.0376 207.217 20.1373 204.5 15.9647C201.783 11.7436 197.998 8.4443 193.146 6.11541H193.098ZM148.849 22.7088H169.518C173.593 22.7088 176.699 23.6306 178.833 25.3773C180.968 27.1725 182.036 29.7439 182.036 33.0432C182.036 35.8573 181.453 38.2832 180.192 40.321C178.93 42.3588 177.281 43.9114 175.049 44.9788C172.817 46.0462 170.1 46.5799 166.898 46.5799H142.881L148.849 22.7088Z" fill="#1E1E1E"/>
<path fill-rule="evenodd" clip-rule="evenodd" d="M840.88 20.0276C840.88 28.2796 834.194 34.9654 825.942 34.9654C817.69 34.9654 811.005 28.2796 811.005 20.0276C811.005 11.7756 817.69 5.08972 825.942 5.08972C834.194 5.08972 840.88 11.7756 840.88 20.0276ZM846 20.0276C846 31.0804 837.025 40.0551 825.972 40.0551C814.92 40.0551 805.945 31.0804 805.945 20.0276C805.945 8.97479 814.92 0 825.972 0C837.025 0 846 8.97479 846 20.0276ZM819.016 27.617V29.2734H823.111V22.0755H824.798C825.641 22.0755 826.364 22.1659 826.966 22.3767C827.539 22.5875 828.02 22.8887 828.382 23.3404C828.743 23.762 829.014 24.274 829.165 24.9366L830.219 29.3035H834.706V29.2132L834.315 27.6471L833.261 24.2138C833.02 23.4308 832.719 22.8284 832.387 22.3465C832.056 21.8647 831.604 21.4431 831.002 21.1118C831.875 20.6299 832.568 19.9673 833.05 19.1542C833.562 18.341 833.833 17.4375 833.833 16.4738C833.833 15.3294 833.562 14.3355 833.05 13.4621C832.538 12.6189 831.815 11.9563 830.851 11.4744C829.918 11.0227 828.803 10.7818 827.539 10.7818H819.046V27.6471L819.016 27.617ZM828.322 18.3712C827.9 18.5519 827.418 18.6422 826.846 18.6422H823.111V14.2452H826.846C827.719 14.2452 828.382 14.456 828.864 14.8475C829.346 15.2089 829.587 15.751 829.587 16.4738C829.587 16.9256 829.466 17.3171 829.225 17.6484C829.014 17.9796 828.713 18.2206 828.291 18.4013L828.322 18.3712Z" fill="#F73905"/>
</svg>
