<svg width="846" height="108" viewBox="0 0 846 108" fill="none" xmlns="http://www.w3.org/2000/svg">
<path d="M551.952 63.051H595.425L600.228 43.9832H556.756L562.141 22.441H612.212L617.016 2.93652H544.189C542.831 2.93652 541.666 3.85838 541.375 5.11986L520.803 87.4559C518.523 96.6259 525.461 105.553 534.922 105.553H591.398L596.832 84.7388H550.448C548.556 84.7388 547.197 82.9921 547.634 81.1484L551.952 63.051Z" fill="#F73905"/>
<path d="M682.326 63.051L687.129 43.9832H643.656L649.042 22.441H699.113L703.916 2.93652H631.09C629.731 2.93652 628.567 3.85838 628.276 5.11986L607.704 87.4559C605.424 96.6259 612.362 105.553 621.823 105.553H678.298L683.733 84.7388H633.661L638.853 63.051H682.326Z" fill="#F73905"/>
<path d="M318.281 23.8495C313.817 16.5232 307.607 10.8465 299.601 6.81946C291.596 2.79242 282.329 0.754639 271.849 0.754639C260.398 0.754639 250.015 3.32612 240.7 8.42057C231.384 13.515 224.058 20.5502 218.721 29.5261C213.384 38.5021 210.715 48.5939 210.715 59.7047C210.715 69.2143 212.899 77.608 217.265 84.8373C221.632 92.0665 227.794 97.6947 235.751 101.722C243.708 105.749 252.975 107.738 263.552 107.738C275.002 107.738 285.434 105.215 294.798 100.121C304.162 95.0262 311.537 88.0395 316.922 79.1606C322.308 70.2817 324.977 60.2869 324.977 49.2247C324.977 39.618 322.745 31.1758 318.281 23.8495ZM293.973 68.5836C291.062 74.1147 287.035 78.4814 281.844 81.6351C276.652 84.7888 270.684 86.3414 263.989 86.3414C258.749 86.3414 254.139 85.2739 250.112 83.0906C246.085 80.9073 242.932 77.7051 240.7 73.5325C238.468 69.4084 237.352 64.508 237.352 58.9769C237.352 52.3784 238.759 46.265 241.525 40.6369C244.29 35.0573 248.269 30.545 253.46 27.1972C258.652 23.8495 264.571 22.1513 271.266 22.1513C276.506 22.1513 281.213 23.3158 285.337 25.5961C289.461 27.8765 292.663 31.0787 294.944 35.2028C297.224 39.3269 298.34 44.2758 298.34 49.9524C298.34 56.8906 296.884 63.0525 293.973 68.5836Z" fill="white"/>
<path d="M390.08 43.8391L380.182 41.6558C374.748 40.3458 370.963 38.8417 368.829 37.2891C366.694 35.785 365.675 33.5532 365.772 30.7391C365.772 28.7013 366.257 26.8091 367.179 25.0624C368.101 23.3158 369.702 21.8602 372.031 20.6958C374.36 19.5313 377.513 18.9491 381.492 18.9491C385.47 18.9491 388.721 19.6284 391.487 20.9869C394.252 22.3454 396.339 24.1406 397.746 26.2269C399.153 28.4102 400.026 30.8361 400.414 33.6502H425.304C425.013 27.5369 423.218 22.0058 419.87 17.0569C416.522 12.108 411.67 8.17798 405.314 5.21835C398.959 2.25871 391.293 0.754639 382.365 0.754639C374.117 0.754639 366.839 2.06464 360.532 4.68464C354.224 7.30464 349.324 11.1376 345.831 16.135C342.337 21.1324 340.591 27.0517 340.591 33.7958C340.591 41.025 342.774 46.9928 347.141 51.6991C351.507 56.5024 358.106 59.9473 366.936 62.0336L377.562 64.3625C382.608 65.7695 386.198 67.4191 388.284 69.4569C390.371 71.4947 391.39 73.9206 391.39 76.7347C391.39 79.1606 390.71 81.3439 389.352 83.2362C387.993 85.1284 385.907 86.6325 383.044 87.7484C380.182 88.8643 376.591 89.398 372.322 89.398C368.052 89.398 364.316 88.6702 361.405 87.2147C358.494 85.7591 356.359 83.8184 355.001 81.3439C353.642 78.8695 353.011 76.1039 353.109 72.9502H328.655C328.461 79.7428 330.062 85.8077 333.41 91.0962C336.758 96.3847 341.707 100.46 348.305 103.371C354.904 106.282 362.764 107.738 371.885 107.738C381.589 107.738 389.983 106.428 397.018 103.808C404.053 101.188 409.487 97.3551 413.369 92.3091C417.25 87.3117 419.191 81.1499 419.191 73.9691C419.191 65.915 416.522 59.4136 411.185 54.4647C405.848 49.5158 398.813 45.9739 390.08 43.8391Z" fill="#F73905"/>
<path d="M526.035 34.9588C526.521 28.6999 525.453 23.1202 522.785 18.2199C520.116 13.368 516.138 9.63208 510.898 6.96356C505.658 4.29504 499.593 2.93652 492.703 2.93652H448.988C447.629 2.93652 446.465 3.85838 446.174 5.11986L421.09 105.553H446.708L455.878 69.1644H484.115C491.878 69.1644 498.865 67.8058 505.027 65.0403C511.189 62.2747 516.089 58.2962 519.777 53.1532C523.464 48.0103 525.55 41.9454 526.035 34.9588ZM495.129 45.9725C492.072 48.544 488.142 49.8055 483.388 49.8055H460.535L467.377 23.0232H486.59C490.86 23.0232 494.207 24.0906 496.633 26.1769C499.059 28.2632 500.175 31.1743 499.981 34.9588C499.787 39.7136 498.186 43.401 495.129 45.9725Z" fill="#F73905"/>
<path d="M793.246 25.3036C789.025 18.1714 782.912 12.6402 774.955 8.75875C766.998 4.92578 757.779 2.93652 747.299 2.93652H717.994C716.636 2.93652 715.471 3.85838 715.18 5.11986L690.096 105.553H736.528C748.561 105.553 759.186 103.321 768.405 98.8092C777.623 94.297 784.853 87.844 790.093 79.4988C795.333 71.1536 798.244 61.5469 798.826 50.6788C799.311 40.878 797.468 32.4358 793.246 25.3036ZM772.335 50.5332C771.947 57.6169 770.297 63.7303 767.338 68.8247C764.378 73.9192 760.205 77.8492 754.868 80.6147C749.531 83.3803 743.321 84.7388 736.237 84.7388H720.954L736.383 23.751H745.116C750.841 23.751 755.79 24.7699 759.963 26.7591C764.135 28.7484 767.338 31.7565 769.569 35.7836C771.801 39.8106 772.723 44.711 772.335 50.5332Z" fill="#F73905"/>
<path d="M106.192 53.1532C109.88 48.0103 111.966 41.9454 112.451 34.9588C112.936 28.6999 111.869 23.1202 109.2 18.2199C106.532 13.368 102.553 9.63208 97.3133 6.96356C92.0733 4.29504 86.0084 2.93652 79.1188 2.93652H35.4036C34.0451 2.93652 32.8806 3.85838 32.5895 5.16838L28.8051 20.4032C28.4169 21.9073 27.0584 22.9747 25.5058 22.9747H6.6321C5.27358 22.9747 4.10913 23.8965 3.81802 25.2065L0.0820909 40.1502C-0.354576 41.9939 1.00394 43.7406 2.89617 43.7406H20.751C22.1095 43.7406 23.274 42.8188 23.5651 41.5088L27.5436 25.5947C27.9317 24.0906 29.2903 23.0232 30.8429 23.0232H73.0055C77.2751 23.0232 80.6229 24.0906 83.0488 26.1769C85.4747 28.2632 86.5907 31.1743 86.3966 34.9588C86.2025 39.7136 84.6014 43.401 81.5447 45.9725C78.4881 48.544 74.5581 49.8054 69.8033 49.8054H49.3769C48.0184 49.8054 46.854 50.7273 46.5629 52.0373L42.9725 66.4473C42.5843 67.9514 41.2258 69.0673 39.6732 69.0673H18.8103C17.4517 69.0673 16.2873 69.9892 15.9962 71.2506L7.40839 105.505V105.65H33.2203L41.7595 71.7358C42.1477 70.2317 43.5062 69.1643 45.0588 69.1643H70.531C78.294 69.1643 85.2807 67.8058 91.4425 65.0403C97.6044 62.2747 102.505 58.2962 106.192 53.1532Z" fill="white"/>
<path d="M193.098 6.42986C188.246 4.10097 182.569 2.93652 176.068 2.93652H130.606C129.247 2.93652 128.083 3.85838 127.792 5.11986L102.708 105.553H128.18L138.223 65.0888H158.456L173.933 105.553H200.861L183.103 63.1481C185.141 62.5658 187.13 61.9351 189.071 61.0618C195.184 58.3932 199.987 54.4632 203.432 49.2718C206.877 44.0803 208.575 37.9669 208.575 30.8832C208.575 25.3521 207.217 20.4517 204.5 16.2791C201.783 12.058 197.998 8.75875 193.146 6.42986H193.098ZM148.849 23.0232H169.518C173.593 23.0232 176.699 23.9451 178.833 25.6917C180.968 27.4869 182.036 30.0584 182.036 33.3577C182.036 36.1717 181.453 38.5977 180.192 40.6354C178.93 42.6732 177.281 44.2258 175.049 45.2932C172.817 46.3606 170.1 46.8943 166.898 46.8943H142.881L148.849 23.0232Z" fill="white"/>
<path fill-rule="evenodd" clip-rule="evenodd" d="M840.88 20.3421C840.88 28.594 834.194 35.2799 825.942 35.2799C817.69 35.2799 811.005 28.594 811.005 20.3421C811.005 12.0901 817.69 5.40417 825.942 5.40417C834.194 5.40417 840.88 12.0901 840.88 20.3421ZM846 20.3421C846 31.3949 837.025 40.3696 825.972 40.3696C814.92 40.3696 805.945 31.3949 805.945 20.3421C805.945 9.28924 814.92 0.314453 825.972 0.314453C837.025 0.314453 846 9.28924 846 20.3421ZM819.016 27.9314V29.5878H823.111V22.39H824.798C825.641 22.39 826.364 22.4803 826.966 22.6911C827.539 22.902 828.02 23.2031 828.382 23.6549C828.743 24.0765 829.014 24.5885 829.165 25.251L830.219 29.618H834.706V29.5276L834.315 27.9616L833.261 24.5283C833.02 23.7452 832.719 23.1429 832.387 22.661C832.056 22.1791 831.604 21.7575 831.002 21.4263C831.875 20.9444 832.568 20.2818 833.05 19.4686C833.562 18.6555 833.833 17.752 833.833 16.7883C833.833 15.6438 833.562 14.65 833.05 13.7766C832.538 12.9333 831.815 12.2708 830.851 11.7889C829.918 11.3371 828.803 11.0962 827.539 11.0962H819.046V27.9616L819.016 27.9314ZM828.322 18.6856C827.9 18.8663 827.418 18.9567 826.846 18.9567H823.111V14.5597H826.846C827.719 14.5597 828.382 14.7705 828.864 15.162C829.346 15.5234 829.587 16.0655 829.587 16.7883C829.587 17.24 829.466 17.6315 829.225 17.9628C829.014 18.2941 828.713 18.535 828.291 18.7157L828.322 18.6856Z" fill="#F73905"/>
</svg>
